<svg width="16" height="16" viewBox="0 0 16 16" fill="none" xmlns="http://www.w3.org/2000/svg">
<path d="M0.55249 12.5L1.95649 3.4H3.43849L4.86849 12.5H3.75699L2.78199 5.311L2.70399 4.7L2.62599 5.311L1.70299 12.5H0.55249ZM1.34549 10.0885V9.146H3.96499V10.0885H1.34549Z" fill="#548AF7"/>
<path d="M7.04741 12.656C6.60975 12.656 6.25225 12.5607 5.97491 12.37C5.69758 12.1793 5.49174 11.8847 5.35741 11.486C5.22741 11.083 5.16241 10.5652 5.16241 9.9325H6.28041C6.28041 10.3355 6.30641 10.667 6.35841 10.927C6.41475 11.1827 6.49925 11.3712 6.61191 11.4925C6.72891 11.6138 6.87841 11.6745 7.06041 11.6745C7.23375 11.6745 7.37241 11.6182 7.47641 11.5055C7.58475 11.3885 7.66491 11.2108 7.71691 10.9725C7.76891 10.7298 7.79491 10.4178 7.79491 10.0365C7.79491 9.62484 7.74075 9.29767 7.63241 9.055C7.52841 8.81234 7.36375 8.6195 7.13841 8.4765L6.55991 8.1255C6.26958 7.9435 6.03341 7.73984 5.85141 7.5145C5.66941 7.28917 5.53508 7.0335 5.44841 6.7475C5.36175 6.45717 5.31841 6.1235 5.31841 5.7465C5.31841 5.1615 5.37691 4.68484 5.49391 4.3165C5.61524 3.94817 5.79941 3.67734 6.04641 3.504C6.29341 3.33067 6.61408 3.244 7.00841 3.244C7.41141 3.244 7.73858 3.33284 7.98991 3.5105C8.24125 3.68384 8.42758 3.95684 8.54891 4.3295C8.67025 4.69784 8.73091 5.17667 8.73091 5.766H7.61941C7.61941 5.40634 7.59774 5.11384 7.55441 4.8885C7.51108 4.66317 7.44608 4.49634 7.35941 4.388C7.27708 4.27967 7.16441 4.2255 7.02141 4.2255C6.81341 4.2255 6.66175 4.34684 6.56641 4.5895C6.47108 4.82784 6.42341 5.21134 6.42341 5.74C6.42341 6.08234 6.47325 6.364 6.57291 6.585C6.67691 6.80167 6.83941 6.97717 7.06041 7.1115L7.69741 7.5015C7.98341 7.67917 8.21308 7.885 8.38641 8.119C8.56408 8.34867 8.69408 8.6195 8.77641 8.9315C8.85875 9.2435 8.89991 9.6075 8.89991 10.0235C8.89991 10.6345 8.83491 11.135 8.70491 11.525C8.57491 11.9107 8.37341 12.1967 8.10041 12.383C7.83175 12.565 7.48075 12.656 7.04741 12.656Z" fill="#548AF7"/>
<path d="M9.82454 12.5V3.4H11.5665L12.353 9.5035L12.4245 10.8165L12.4895 9.5035L13.211 3.4H14.9855V12.5H13.965V5.0055L13.9975 3.7445L12.8145 12.5H12.0085L10.7995 3.7835L10.832 5.0055V12.5H9.82454Z" fill="#548AF7"/>
</svg>
