<svg width="16" height="16" viewBox="0 0 16 16" fill="none" xmlns="http://www.w3.org/2000/svg">
<path d="M3.5 9.5V3.5H7.5V9.5H3.5Z" stroke="#CED0D6" stroke-linejoin="round"/>
<path d="M4 5.5H7" stroke="#CED0D6"/>
<path d="M4 7.5H7" stroke="#CED0D6"/>
<path d="M2 3.5C2 2.67157 2.67157 2 3.5 2H12.5C13.3284 2 14 2.67157 14 3.5V6.5H15V3.5C15 2.11929 13.8807 1 12.5 1H3.5C2.11929 1 1 2.11929 1 3.5V12.5C1 13.8807 2.11929 15 3.5 15H10.5V14H3.5C2.67157 14 2 13.3284 2 12.5V3.5Z" fill="#CED0D6"/>
<path fill-rule="evenodd" clip-rule="evenodd" d="M12 10H13.5C13.7761 10 14 10.2239 14 10.5V15H13V11H12V10Z" fill="#548AF7"/>
<path fill-rule="evenodd" clip-rule="evenodd" d="M15.5 16H11.5V15H15.5V16Z" fill="#548AF7"/>
<path d="M12.5 7.5H14V9H12.5V7.5Z" fill="#548AF7"/>
</svg>
